<?xml version="1.0" encoding="UTF-8" standalone="no"?>
<!-- Creator: CorelDRAW -->
<svg
   xmlns:dc="http://purl.org/dc/elements/1.1/"
   xmlns:cc="http://creativecommons.org/ns#"
   xmlns:rdf="http://www.w3.org/1999/02/22-rdf-syntax-ns#"
   xmlns:svg="http://www.w3.org/2000/svg"
   xmlns="http://www.w3.org/2000/svg"
   xmlns:xlink="http://www.w3.org/1999/xlink"
   xmlns:sodipodi="http://sodipodi.sourceforge.net/DTD/sodipodi-0.dtd"
   xmlns:inkscape="http://www.inkscape.org/namespaces/inkscape"
   xml:space="preserve"
   width="475.26938"
   height="398.28195"
   style="fill-rule:evenodd"
   viewBox="0 0 210 297"
   id="svg2"
   sodipodi:version="0.32"
   inkscape:version="0.46dev+devel"
   sodipodi:docname="molumen_CRT_monitor.svg"
   inkscape:output_extension="org.inkscape.output.svg.inkscape"
   sodipodi:docbase="C:\Documents and Settings\Molumen\Desktop"
   version="1.0"><metadata
   id="metadata83"><rdf:RDF><cc:Work
       rdf:about=""><dc:format>image/svg+xml</dc:format><dc:type
         rdf:resource="http://purl.org/dc/dcmitype/StillImage" /><dc:title>CRT monitor</dc:title><dc:date>12 10 2006</dc:date><dc:creator><cc:Agent><dc:title>Lumen Design Studio</dc:title></cc:Agent></dc:creator><cc:license
         rdf:resource="http://web.resource.org/cc/PublicDomain" /><dc:description>a CRT monitor</dc:description><dc:subject><rdf:Bag><rdf:li>monitor</rdf:li><rdf:li>computer</rdf:li><rdf:li>screen</rdf:li><rdf:li>crt</rdf:li><rdf:li /></rdf:Bag></dc:subject><dc:contributor><cc:Agent><dc:title>Lumen Design Studio</dc:title></cc:Agent></dc:contributor></cc:Work><cc:License
       rdf:about="http://web.resource.org/cc/PublicDomain"><cc:permits
         rdf:resource="http://web.resource.org/cc/Reproduction" /><cc:permits
         rdf:resource="http://web.resource.org/cc/Distribution" /><cc:permits
         rdf:resource="http://web.resource.org/cc/DerivativeWorks" /></cc:License></rdf:RDF></metadata><sodipodi:namedview
   inkscape:window-height="750"
   inkscape:window-width="1280"
   inkscape:pageshadow="2"
   inkscape:pageopacity="0.0"
   guidetolerance="10.0"
   gridtolerance="10.0"
   objecttolerance="10.0"
   borderopacity="1.0"
   bordercolor="#666666"
   pagecolor="#ffffff"
   id="base"
   inkscape:zoom="0.91245791"
   inkscape:cx="156"
   inkscape:cy="127.5"
   inkscape:window-x="-8"
   inkscape:window-y="-8"
   inkscape:current-layer="svg2" />
 <defs
   id="defs4"><linearGradient
   inkscape:collect="always"
   id="linearGradient2381"><stop
     style="stop-color:#98979b;stop-opacity:1;"
     offset="0"
     id="stop2383" /><stop
     style="stop-color:#98979b;stop-opacity:0;"
     offset="1"
     id="stop2385" /></linearGradient>
  <style
   type="text/css"
   id="style6">
   
    .str3 {stroke:#98979B;stroke-width:0.1764}
    .str2 {stroke:#C3C5C7;stroke-width:0.3528}
    .str1 {stroke:#D8DADC;stroke-width:0.3528}
    .str0 {stroke:#D8DADC;stroke-width:0.7056}
    .fil2 {fill:none}
    .fil4 {fill:#1B1C20}
    .fil5 {fill:#98979B}
    .fil6 {fill:#B1CA00}
    .fil1 {fill:#D8DADC}
    .fil0 {fill:#ECEEEF}
    .fil7 {fill:#FDCA00}
    .fil8 {fill:url(#id4)}
    .fil3 {fill:url(#id5)}
   
  </style>
   <clipPath
   id="id0">
    <path
   d="M 19.7276,76.3165 C 76.5759,74.6496 133.4246,74.5968 190.2726,76.3165 C 190.9911,76.3382 191.5511,76.9059 191.5796,77.6235 C 193.3788,122.8585 193.1671,168.0936 191.5796,213.3285 C 191.5545,214.0462 190.9908,214.6355 190.2726,214.6355 C 173.9836,214.6355 157.6946,214.6355 141.4056,214.6355 C 141.1968,215.8984 140.9879,217.1786 140.7796,219.6936 C 140.7205,220.4068 140.1875,220.9611 139.4726,221.0006 C 116.4909,222.2703 93.5093,222.2703 70.5277,221.0006 C 69.8128,220.9611 69.28,220.4094 69.2207,219.6936 C 69.0124,217.1786 68.8032,215.8984 68.5944,214.6355 C 52.3055,214.6355 36.0166,214.6355 19.7277,214.6355 C 19.0095,214.6355 18.4459,214.0469 18.4207,213.3285 C 16.8331,168.0932 16.6216,122.8581 18.4207,77.6235 C 18.4492,76.9052 19.0092,76.3375 19.7277,76.3165 L 19.7276,76.3165 z"
   id="path9" />
   </clipPath>
   <mask
   id="id1">
  <linearGradient
   id="id2"
   gradientUnits="userSpaceOnUse"
   x1="60.081799"
   y1="107.582"
   x2="141.04201"
   y2="172.8">
   <stop
   offset="0"
   style="stop-opacity:1; stop-color:white"
   id="stop13" />
   <stop
   offset="1"
   style="stop-opacity:0; stop-color:white"
   id="stop15" />
  </linearGradient>
    <rect
   style="fill:url(#id2)"
   x="35.121399"
   y="91.873199"
   width="130.881"
   height="96.635696"
   id="rect17" />
   </mask>
   <clipPath
   id="id3">
    <path
   d="M 69.2576,208.165 C 93.0857,208.165 116.9144,208.165 140.7425,208.165 C 141.4612,208.165 142.1086,208.7588 142.0495,209.472 C 141.6267,214.5727 141.2023,214.5937 140.7795,219.6944 C 140.7204,220.4077 140.1877,220.9619 139.4725,221.0014 C 116.4908,222.2714 93.5092,222.2714 70.5276,221.0014 C 69.8124,220.9619 69.2799,220.4105 69.2206,219.6944 C 68.7975,214.5937 68.3736,214.5727 67.9506,209.472 C 67.8913,208.7559 68.5389,208.165 69.2576,208.165 z"
   id="path20" />
   </clipPath>
  <linearGradient
   id="id4"
   gradientUnits="userSpaceOnUse"
   x1="105"
   y1="212.75301"
   x2="105"
   y2="213.90601">
   <stop
   offset="0"
   style="stop-color:#AEAFB2"
   id="stop23" />
   <stop
   offset="1"
   style="stop-color:#ECEEEF"
   id="stop25" />
  </linearGradient>
  <radialGradient
   id="id5"
   gradientUnits="userSpaceOnUse"
   cx="105"
   cy="142.936"
   r="75.134399"
   fx="105"
   fy="142.936">
   <stop
   offset="0"
   style="stop-color:white"
   id="stop28" />
   <stop
   offset="0.811765"
   style="stop-color:#E1E2E3"
   id="stop30" />
   <stop
   offset="1"
   style="stop-color:#C3C5C7"
   id="stop32" />
  </radialGradient>
 
  <metadata
   id="CorelCorpID_0Corel-Layer" />
  
  
  
  
  
  
  
  
  
  
  
  
  
  
  
  
  
  
  
  
 
   
  
    
    
   <filter
   inkscape:collect="always"
   id="filter4067"><feGaussianBlur
     inkscape:collect="always"
     stdDeviation="1"
     id="feGaussianBlur4069" /></filter><linearGradient
   inkscape:collect="always"
   xlink:href="#id4"
   id="linearGradient2362"
   gradientUnits="userSpaceOnUse"
   gradientTransform="matrix(1.9711563,0,0,1.9711563,-100.75717,-144.95459)"
   x1="105"
   y1="212.75301"
   x2="105"
   y2="213.90601" /><radialGradient
   inkscape:collect="always"
   xlink:href="#id5"
   id="radialGradient2373"
   gradientUnits="userSpaceOnUse"
   gradientTransform="matrix(1.9711563,0,0,1.9711563,-100.75717,-144.95459)"
   cx="105"
   cy="142.936"
   fx="105"
   fy="142.936"
   r="75.134399" /><linearGradient
   inkscape:collect="always"
   xlink:href="#linearGradient2381"
   id="linearGradient2387"
   x1="-80.533173"
   y1="-7.8678074"
   x2="5.2844005"
   y2="72.566368"
   gradientUnits="userSpaceOnUse" /></defs>
 
<g
   id="g2389"
   transform="matrix(1.0022851,0,0,1.0022851,-0.3156999,-1.8804966e-2)"><path
     class="fil0"
     d="M -61.870993,5.4771535 C 50.18589,2.1914332 162.24357,2.0873561 274.29987,5.4771535 C 275.71615,5.5199276 276.81999,6.638953 276.87617,8.0534548 C 280.42268,97.218708 280.00538,186.38416 276.87617,275.54921 C 276.8267,276.9639 275.71555,278.12553 274.29987,278.12553 C 242.1917,278.12553 210.08354,278.12553 177.97537,278.12553 C 177.56379,280.6149 177.15202,283.13837 176.74143,288.09583 C 176.62493,289.50166 175.57431,290.59427 174.16513,290.67211 C 128.8646,293.17489 83.564267,293.17489 38.263942,290.67211 C 36.854763,290.59427 35.804531,289.50679 35.687641,288.09583 C 35.277049,283.13837 34.864683,280.6149 34.453106,278.12553 C 2.3451386,278.12553 -29.762829,278.12553 -61.870796,278.12553 C -63.28648,278.12553 -64.397424,276.96528 -64.447097,275.54921 C -67.576505,186.38337 -67.993404,97.21792 -64.447097,8.0534548 C -64.390919,6.6375732 -63.287072,5.5185478 -61.870796,5.4771535 L -61.870993,5.4771535 z"
     id="path36"
     style="fill:#eceeef" /><g
     transform="matrix(1.9711563,0,0,1.9711563,-100.75717,-146.0672)"
     id="g38">
   <g
   id="_305148432">
    <path
   id="_189198024"
   class="fil1"
   d="M 71.2233,209.569 C 94.5876,209.569 117.9525,209.569 141.3168,209.569 C 142.0215,209.569 142.6563,210.151 142.5984,210.8506 C 142.1836,215.852 141.7679,215.8726 141.3531,220.874 C 141.2951,221.5736 140.7728,222.1168 140.0715,222.1555 C 117.5371,223.4008 95.0029,223.4008 72.4686,222.1555 C 71.7673,222.1168 71.2452,221.5761 71.187,220.874 C 70.7721,215.8726 70.3565,215.852 69.9417,210.8506 C 69.8836,210.1484 70.5186,209.569 71.2233,209.569 L 71.2233,209.569 z"
   style="fill:#d8dadc" />
    <path
   sodipodi:nodetypes="csssccsscc"
   id="_303567312"
   class="fil1"
   d="M 40.602187,209.569 C 63.966487,209.569 146.03361,209.569 169.39791,209.569 C 170.10261,209.569 170.73741,210.151 170.67951,210.8506 C 170.26471,215.852 169.84901,215.8726 169.43421,220.874 C 169.37621,221.5736 168.85391,222.1168 168.15261,222.1555 C 145.61821,223.4008 64.381787,223.4008 41.847487,222.1555 C 41.146187,222.1168 40.624087,221.5761 40.565887,220.874 C 40.150987,215.8726 39.735387,215.852 39.320587,210.8506 C 39.262487,210.1484 39.897487,209.569 40.602187,209.569 L 40.602187,209.569 z"
   style="fill:#d8dadc" />
   </g>
  </g><path
     sodipodi:nodetypes="ccccscsssscssccc"
     class="fil2 str0"
     d="M -61.870993,5.4771535 C 50.18589,2.1914332 162.24357,2.0873561 274.29987,5.4771535 C 275.71615,5.5199276 276.81999,6.638953 276.87617,8.0534548 C 280.42268,97.218708 280.00538,186.38416 276.87617,275.54921 C 276.8267,276.9639 275.71555,278.12553 274.29987,278.12553 C 242.1917,278.12553 265.71394,278.12553 233.60577,278.12553 C 233.1942,280.6149 232.78242,283.13837 232.37183,288.09583 C 232.25534,289.50166 231.20471,290.59427 229.79553,290.67211 C 184.49501,293.17489 27.933855,293.17489 -17.366469,290.67211 C -18.775649,290.59427 -19.825881,289.50679 -19.942771,288.09583 C -20.353362,283.13837 -20.765728,280.6149 -21.177306,278.12553 C -53.285273,278.12553 -29.762829,278.12553 -61.870796,278.12553 C -63.28648,278.12553 -64.397424,276.96528 -64.447097,275.54921 C -67.576505,186.38337 -67.993404,97.21792 -64.447097,8.0534548 C -64.390919,6.6375732 -63.287072,5.5185478 -61.870796,5.4771535 L -61.870993,5.4771535 z"
     id="path43"
     style="fill:none;stroke:#d8dadc;stroke-width:1.39084792" /><path
     class="fil3"
     d="M -39.093297,27.631964 L 251.52217,27.631964 C 252.72319,27.631964 253.70542,28.61498 253.70542,29.815217 L 253.70542,243.77438 C 253.70542,244.9746 252.7224,245.95764 251.52217,245.95764 L -39.093297,245.95764 C -40.293534,245.95764 -41.27655,244.97541 -41.27655,243.77438 L -41.27655,29.815217 C -41.27655,28.614192 -40.294322,27.631964 -39.093297,27.631964 L -39.093297,27.631964 z"
     id="path45"
     style="fill:url(#radialGradient2373)" /><path
     class="fil4"
     d="M -33.025684,32.190263 L 245.45534,32.190263 C 246.6061,32.190263 247.54753,33.132279 247.54753,34.282449 L 247.54753,239.30833 C 247.54753,240.45848 246.60531,241.4005 245.45534,241.4005 L -33.025684,241.4005 C -34.175853,241.4005 -35.117869,240.45929 -35.117869,239.30833 L -35.117869,34.282449 C -35.117869,33.13149 -34.176445,32.190263 -33.025684,32.190263 z"
     id="path47"
     style="fill:#1b1c20" /><path
     transform="matrix(1.9711563,0,0,1.9711563,74.678681,2.2782685)"
     class="fil5"
     style="fill:url(#linearGradient2387);fill-opacity:1;filter:url(#filter4067)"
     d="M -52.866696,17.217647 C -9.590196,17.217647 33.686207,17.217647 76.962306,17.217647 C -52.866696,17.217547 -53.842696,18.192947 -53.842696,113.77715 C -53.842696,81.915747 -53.842696,50.054347 -53.842696,18.192947 C -53.842696,17.656447 -53.403896,17.217647 -52.867396,17.217647 L -52.866696,17.217647 z"
     id="path49" /><path
     sodipodi:nodetypes="csssssssc"
     class="fil0"
     d="M -19.870035,265.37114 C 27.098874,265.37114 185.32979,265.37114 232.2987,265.37114 C 233.71537,265.37114 234.9915,266.54163 234.875,267.94746 C 234.0416,278.00172 233.20504,278.04313 232.37163,288.09739 C 232.25514,289.50343 231.2051,290.59585 229.79533,290.67371 C 184.49481,293.17706 27.933658,293.17706 -17.366667,290.67371 C -18.776437,290.59585 -19.826078,289.50895 -19.942968,288.09739 C -20.776964,278.04313 -21.612537,278.00172 -22.446336,267.94746 C -22.563226,266.5359 -21.286705,265.37114 -19.870035,265.37114 z"
     id="path51"
     style="fill:#eceeef" /><path
     class="fil2"
     d="M 35.760377,265.37114 C 82.729285,265.37114 129.69939,265.37114 176.6683,265.37114 C 178.08497,265.37114 179.36109,266.54163 179.2446,267.94746 C 178.41119,278.00172 177.57463,278.04313 176.74123,288.09739 C 176.62473,289.50343 175.5747,290.59585 174.16493,290.67371 C 128.8644,293.17706 83.56407,293.17706 38.263745,290.67371 C 36.853974,290.59585 35.804334,289.50895 35.687444,288.09739 C 34.853448,278.04313 34.017875,278.00172 33.184076,267.94746 C 33.067186,266.5359 34.343707,265.37114 35.760377,265.37114 z"
     id="path58"
     style="fill:none" /><circle
     transform="matrix(1.9711563,0,0,1.9711563,-156.38756,-144.95459)"
     class="fil2 str2"
     cx="74.063202"
     cy="217.70399"
     r="0.6498"
     id="circle60"
     sodipodi:cx="74.063202"
     sodipodi:cy="217.70399"
     sodipodi:rx="0.6498"
     sodipodi:ry="0.6498"
     style="fill:none;stroke:#c3c5c7;stroke-width:0.35280001" /><circle
     transform="matrix(1.9711563,0,0,1.9711563,-156.38756,-144.95459)"
     class="fil2 str2"
     cx="82.012299"
     cy="217.70399"
     r="0.95476902"
     id="circle62"
     sodipodi:cx="82.012299"
     sodipodi:cy="217.70399"
     sodipodi:rx="0.95476902"
     sodipodi:ry="0.95476902"
     style="fill:none;stroke:#c3c5c7;stroke-width:0.35280001" /><circle
     transform="matrix(1.9711563,0,0,1.9711563,-156.38756,-144.95459)"
     class="fil6 str3"
     cx="87.514702"
     cy="217.70399"
     r="0.3249"
     id="circle64"
     sodipodi:cx="87.514702"
     sodipodi:cy="217.70399"
     sodipodi:rx="0.3249"
     sodipodi:ry="0.3249"
     style="fill:#b1ca00;stroke:#98979b;stroke-width:0.17640001" /><circle
     transform="matrix(1.9711563,0,0,1.9711563,-156.38756,-144.95459)"
     class="fil7 str3"
     cx="90.034698"
     cy="217.70399"
     r="0.3249"
     id="circle66"
     sodipodi:cx="90.034698"
     sodipodi:cy="217.70399"
     sodipodi:rx="0.3249"
     sodipodi:ry="0.3249"
     style="fill:#fdca00;stroke:#98979b;stroke-width:0.17640001" /><path
     sodipodi:nodetypes="ccsc"
     class="fil8"
     d="M 49.657247,274.41482 C 72.527194,274.41482 139.90148,274.41482 162.77143,274.41482 C 151.38169,275.17234 117.84032,276.68757 106.35045,276.68757 C 94.770488,276.68757 61.137458,275.17234 49.657247,274.41482 z"
     id="path68"
     style="fill:url(#linearGradient2362)" /><circle
     transform="matrix(1.9711563,0,0,1.9711563,-100.75717,-144.95459)"
     class="fil6 str3"
     cx="105"
     cy="215.05901"
     r="0.6498"
     id="circle70"
     sodipodi:cx="105"
     sodipodi:cy="215.05901"
     sodipodi:rx="0.6498"
     sodipodi:ry="0.6498"
     style="fill:#b1ca00;stroke:#98979b;stroke-width:0.17640001" /><circle
     transform="matrix(1.9711563,0,0,1.9711563,-45.126789,-144.95459)"
     class="fil2 str2"
     cx="132.065"
     cy="217.70399"
     r="0.95476902"
     id="circle72"
     sodipodi:cx="132.065"
     sodipodi:cy="217.70399"
     sodipodi:rx="0.95476902"
     sodipodi:ry="0.95476902"
     style="fill:none;stroke:#c3c5c7;stroke-width:0.35280001" /><circle
     transform="matrix(1.9711563,0,0,1.9711563,-45.126789,-144.95459)"
     class="fil2 str2"
     cx="135.519"
     cy="217.70399"
     r="0.95476902"
     id="circle74"
     sodipodi:cx="135.519"
     sodipodi:cy="217.70399"
     sodipodi:rx="0.95476902"
     sodipodi:ry="0.95476902"
     style="fill:none;stroke:#c3c5c7;stroke-width:0.35280001" /><circle
     transform="matrix(1.9711563,0,0,1.9711563,-45.126789,-144.95459)"
     class="fil2 str2"
     cx="120.229"
     cy="217.70399"
     r="0.95476902"
     id="circle76"
     sodipodi:cx="120.229"
     sodipodi:cy="217.70399"
     sodipodi:rx="0.95476902"
     sodipodi:ry="0.95476902"
     style="fill:none;stroke:#c3c5c7;stroke-width:0.35280001" /><circle
     transform="matrix(1.9711563,0,0,1.9711563,-45.126789,-144.95459)"
     class="fil2 str2"
     cx="123.684"
     cy="217.70399"
     r="0.95476902"
     id="circle78"
     sodipodi:cx="123.684"
     sodipodi:cy="217.70399"
     sodipodi:rx="0.95476902"
     sodipodi:ry="0.95476902"
     style="fill:none;stroke:#c3c5c7;stroke-width:0.35280001" /><circle
     transform="matrix(1.9711563,0,0,1.9711563,-45.126789,-144.95459)"
     class="fil2 str2"
     cx="127.874"
     cy="217.70399"
     r="1.06453"
     id="circle80"
     sodipodi:cx="127.874"
     sodipodi:cy="217.70399"
     sodipodi:rx="1.06453"
     sodipodi:ry="1.06453"
     style="fill:none;stroke:#c3c5c7;stroke-width:0.35280001" /><path
     sodipodi:nodetypes="cccc"
     id="path2274"
     d="M 106.22256,281.39061 C 102.44199,281.39061 98.960791,286.18876 96.243856,292.9239 C 102.89071,292.97777 109.53704,292.97777 116.18387,292.9239 C 113.46695,286.18876 110.00314,281.39061 106.22256,281.39061 z"
     style="fill:#eceeef;stroke:#d8dadc;stroke-width:1.3907603;stroke-miterlimit:4;stroke-dasharray:none;stroke-opacity:1" /><ellipse
     transform="matrix(1.3022542,0,0,0.8922261,-30.522433,88.753775)"
     id="_23469352"
     class="fil1 str1"
     cx="105"
     cy="221.953"
     rx="1.2276"
     ry="3.7219999"
     sodipodi:cx="105"
     sodipodi:cy="221.953"
     sodipodi:rx="1.2276"
     sodipodi:ry="3.7219999"
     style="fill:#d8dadc;stroke:#d8dadc;stroke-width:0.35280001" /></g></svg>